# xmcd
#
# Track frame offsets:
#	151
#	10442
#	24966
#	40385
#	60973
#	77056
#	87716
#	99588
#	110453
#	128524
#
# Disc length: 1857 seconds
#
# Revision: 1
# Processed by: cddbd v1.5.2PL0 Copyright (c) Steve Scherf et al.
# Submitted via: audiograbber 1.83.01
#
DISCID=74073f0a
DTITLE=Charles Burns - Lets Put Tings In Perspective
DYEAR=1998
DGENRE=Country
TTITLE0=Stuck In A Rut
TTITLE1=My Music
TTITLE2=I Won´t Cry Over You
TTITLE3=A Father´s Love
TTITLE4=Blinded By Love
TTITLE5=Bubble Gummin´
TTITLE6=When We Met
TTITLE7=Your # 1
TTITLE8=Lets Put Tings In Perspective
TTITLE9=A Writers Song
EXTD=
EXTT0=
EXTT1=
EXTT2=
EXTT3=
EXTT4=
EXTT5=
EXTT6=
EXTT7=
EXTT8=
EXTT9=
PLAYORDER=
